<?xml version="1.0" encoding="utf-8"?>
<!-- Generator: Adobe Illustrator 22.1.0, SVG Export Plug-In . SVG Version: 6.00 Build 0)  -->
<svg version="1.1" id="Слой_1" xmlns="http://www.w3.org/2000/svg" xmlns:xlink="http://www.w3.org/1999/xlink" x="0px" y="0px"
	 viewBox="0 0 1024 1024" style="enable-background:new 0 0 1024 1024;" xml:space="preserve">
<style type="text/css">
	.st0{fill:#D66043;}
	.st1{opacity:0.1;}
	.st2{fill:#0E0F0F;}
	.st3{fill:#FFFFFF;}
</style>
<g>
	<path class="st0" d="M500.2,85.8c-168.1,0-304.4,136.3-304.4,304.4c0,179.7,304.4,526.9,304.4,526.9s304.4-333.8,304.4-526.9
		C804.6,222.1,668.3,85.8,500.2,85.8z"/>
	<g id="XMLID_10_">
		<g id="XMLID_15_" class="st1">
			<path id="XMLID_4_" class="st2" d="M487,489.4h18.8c-5.6,0-11.1-0.9-16.2-2.6L487,489.4z"/>
		</g>
		<path class="st3" d="M500.2,221c-98,0-177.5,79.5-177.5,177.5c0,98,79.5,177.5,177.5,177.5c98,0,177.5-79.5,177.5-177.5
			C677.7,300.5,598.2,221,500.2,221z M500.2,265c59,0,109.1,38.4,126.7,91.5h-62.5H436h-62.5C391.1,303.4,441.2,265,500.2,265z
			 M528.1,413c0,15.4-12.5,28-28,28s-28-12.5-28-28s12.5-28,28-28S528.1,397.5,528.1,413z M366.7,398.5h51.6l6.5,30.5
			c0.7,3.3,1.7,6.4,3,9.4L391,475.1C375.7,453.4,366.7,427,366.7,398.5z M500.2,532c-30,0-57.7-10-80.1-26.7l38.4-38.4
			c5.1,1.7,10.6,2.6,16.2,2.6h50.9c5.6,0,11.1-0.9,16.2-2.6l38.4,38.4C557.9,522,530.2,532,500.2,532z M609.4,475.1l-36.8-36.8
			c1.3-3,2.3-6.1,3-9.4l6.5-30.5h51.6C633.7,427,624.7,453.4,609.4,475.1z"/>
	</g>
</g>
</svg>
